<svg width="24" height="24" viewBox="0 0 24 24" fill="none" xmlns="http://www.w3.org/2000/svg">
<rect width="24" height="24" rx="12" fill="#D3D3D3"/>
<path fill-rule="evenodd" clip-rule="evenodd" d="M6.48445 5.07024C6.09393 4.67971 5.46076 4.67971 5.07024 5.07024C4.67971 5.46076 4.67971 6.09393 5.07024 6.48445L10.5854 11.9996L5.07024 17.5147C4.67971 17.9052 4.67971 18.5384 5.07024 18.9289C5.46076 19.3194 6.09393 19.3194 6.48445 18.9289L11.9996 13.4138L17.5147 18.9289C17.9052 19.3194 18.5384 19.3194 18.9289 18.9289C19.3194 18.5384 19.3194 17.9052 18.9289 17.5147L13.4138 11.9996L18.9289 6.48445C19.3194 6.09393 19.3194 5.46076 18.9289 5.07024C18.5384 4.67971 17.9052 4.67971 17.5147 5.07024L11.9996 10.5854L6.48445 5.07024Z" fill="black"/>
</svg>
